<svg width="48" height="48" viewBox="0 0 192 192" xmlns="http://www.w3.org/2000/svg" xmlns:xlink="http://www.w3.org/1999/xlink"><defs><linearGradient id="a" x1="0" x2="1" y1="0" y2="0" gradientTransform="matrix(61.30537 0 0 -61.30537 13.876 76.436)" gradientUnits="userSpaceOnUse" spreadMethod="pad"><stop offset="0" style="stop-opacity:1;stop-color:#ec1c28"/><stop offset=".332" style="stop-opacity:1;stop-color:#ec1c28"/><stop offset="1" style="stop-opacity:1;stop-color:#fbc81f"/></linearGradient><linearGradient xlink:href="#a" id="y" x1="0" x2="1" y1="0" y2="0" gradientTransform="matrix(61.3083 0 0 -61.30537 12.565 76.436)" gradientUnits="userSpaceOnUse" spreadMethod="pad"/><linearGradient xlink:href="#a" id="b" x1="0" x2="1" y1="0" y2="0" gradientTransform="matrix(61.30537 0 0 -61.30537 13.876 76.436)" gradientUnits="userSpaceOnUse" spreadMethod="pad"/><linearGradient xlink:href="#a" id="c" x1="0" x2="1" y1="0" y2="0" gradientTransform="matrix(61.30537 0 0 -61.30537 13.876 76.436)" gradientUnits="userSpaceOnUse" spreadMethod="pad"/><linearGradient xlink:href="#a" id="d" x1="0" x2="1" y1="0" y2="0" gradientTransform="matrix(61.30537 0 0 -61.30537 13.876 76.436)" gradientUnits="userSpaceOnUse" spreadMethod="pad"/><linearGradient xlink:href="#a" id="e" x1="0" x2="1" y1="0" y2="0" gradientTransform="matrix(61.30537 0 0 -61.30537 13.876 76.436)" gradientUnits="userSpaceOnUse" spreadMethod="pad"/><linearGradient xlink:href="#a" id="f" x1="0" x2="1" y1="0" y2="0" gradientTransform="matrix(61.30537 0 0 -61.30537 13.876 76.436)" gradientUnits="userSpaceOnUse" spreadMethod="pad"/><linearGradient xlink:href="#a" id="g" x1="0" x2="1" y1="0" y2="0" gradientTransform="matrix(61.30537 0 0 -61.30537 13.876 76.436)" gradientUnits="userSpaceOnUse" spreadMethod="pad"/><linearGradient xlink:href="#a" id="h" x1="0" x2="1" y1="0" y2="0" gradientTransform="matrix(61.30537 0 0 -61.30537 13.876 76.436)" gradientUnits="userSpaceOnUse" spreadMethod="pad"/><linearGradient xlink:href="#a" id="i" x1="0" x2="1" y1="0" y2="0" gradientTransform="matrix(61.30537 0 0 -61.30537 13.876 76.436)" gradientUnits="userSpaceOnUse" spreadMethod="pad"/><linearGradient xlink:href="#a" id="j" x1="0" x2="1" y1="0" y2="0" gradientTransform="matrix(61.30537 0 0 -61.30537 13.876 76.436)" gradientUnits="userSpaceOnUse" spreadMethod="pad"/><linearGradient xlink:href="#a" id="k" x1="0" x2="1" y1="0" y2="0" gradientTransform="matrix(61.30537 0 0 -61.30537 13.876 76.436)" gradientUnits="userSpaceOnUse" spreadMethod="pad"/><linearGradient xlink:href="#a" id="l" x1="0" x2="1" y1="0" y2="0" gradientTransform="matrix(61.30537 0 0 -61.30537 13.876 76.436)" gradientUnits="userSpaceOnUse" spreadMethod="pad"/><linearGradient xlink:href="#a" id="m" x1="0" x2="1" y1="0" y2="0" gradientTransform="matrix(61.30537 0 0 -61.30537 13.876 76.436)" gradientUnits="userSpaceOnUse" spreadMethod="pad"/><linearGradient xlink:href="#a" id="n" x1="0" x2="1" y1="0" y2="0" gradientTransform="matrix(61.30537 0 0 -61.30537 13.876 76.436)" gradientUnits="userSpaceOnUse" spreadMethod="pad"/><linearGradient xlink:href="#a" id="o" x1="0" x2="1" y1="0" y2="0" gradientTransform="matrix(61.30537 0 0 -61.30537 13.876 76.436)" gradientUnits="userSpaceOnUse" spreadMethod="pad"/><linearGradient xlink:href="#a" id="p" x1="0" x2="1" y1="0" y2="0" gradientTransform="matrix(61.30537 0 0 -61.30537 13.876 76.436)" gradientUnits="userSpaceOnUse" spreadMethod="pad"/><linearGradient xlink:href="#a" id="q" x1="0" x2="1" y1="0" y2="0" gradientTransform="matrix(61.30537 0 0 -61.30537 13.876 76.436)" gradientUnits="userSpaceOnUse" spreadMethod="pad"/><linearGradient xlink:href="#a" id="r" x1="0" x2="1" y1="0" y2="0" gradientTransform="matrix(61.30537 0 0 -61.30537 13.876 76.436)" gradientUnits="userSpaceOnUse" spreadMethod="pad"/><linearGradient xlink:href="#a" id="s" x1="0" x2="1" y1="0" y2="0" gradientTransform="matrix(61.30537 0 0 -61.30537 13.876 76.436)" gradientUnits="userSpaceOnUse" spreadMethod="pad"/><linearGradient xlink:href="#a" id="t" x1="0" x2="1" y1="0" y2="0" gradientTransform="matrix(61.30537 0 0 -61.30537 13.876 76.436)" gradientUnits="userSpaceOnUse" spreadMethod="pad"/><linearGradient xlink:href="#a" id="u" x1="0" x2="1" y1="0" y2="0" gradientTransform="matrix(61.30537 0 0 -61.30537 13.876 76.436)" gradientUnits="userSpaceOnUse" spreadMethod="pad"/><linearGradient xlink:href="#a" id="v" x1="0" x2="1" y1="0" y2="0" gradientTransform="matrix(61.30537 0 0 -61.30537 13.876 76.436)" gradientUnits="userSpaceOnUse" spreadMethod="pad"/><linearGradient xlink:href="#a" id="w" x1="0" x2="1" y1="0" y2="0" gradientTransform="matrix(61.30537 0 0 -61.30537 13.876 76.436)" gradientUnits="userSpaceOnUse" spreadMethod="pad"/><linearGradient xlink:href="#a" id="x" x1="0" x2="1" y1="0" y2="0" gradientTransform="matrix(61.30537 0 0 -61.30537 13.876 76.436)" gradientUnits="userSpaceOnUse" spreadMethod="pad"/></defs><g style="display:inline"><path d="m30.575 68.987 1.337-1.343 4.826 1.607-1.61-4.823 1.34-1.34 2.95 8.844z" style="fill:url(#b);stroke:none" transform="matrix(2.81077 0 0 -2.81077 -27.318 310.844)"/><path d="m27.188 67.914 5.746-10.675 1.252 1.252-5.747 10.674z" style="fill:url(#c);stroke:none" transform="matrix(2.81077 0 0 -2.81077 -27.318 310.844)"/><path d="m24.636 57.152 1.608 4.823-1.34 1.34-2.95-8.846 8.843 2.949-1.338 1.343z" style="fill:url(#d);stroke:none" transform="matrix(2.81077 0 0 -2.81077 -27.318 310.844)"/><path d="m44.011 65.874 2.274-5.144h1.895l-4.168 8.935-4.17-8.038 1.895-.154z" style="fill:url(#e);stroke:none" transform="matrix(2.81077 0 0 -2.81077 -27.318 310.844)"/><path d="m38.215 58.771 12-3.485v1.77l-12 3.484z" style="fill:url(#f);stroke:none" transform="matrix(2.81077 0 0 -2.81077 -27.318 310.844)"/><path d="m44.011 49.269-2.273 4.461h-1.895l4.17-8.252 4.166 8.379-1.896-.018z" style="fill:url(#g);stroke:none" transform="matrix(2.81077 0 0 -2.81077 -27.318 310.844)"/><path d="m57.288 69.377-8.843 2.95 2.945-8.844 1.342 1.338-1.607 4.825 4.823-1.609z" style="fill:url(#h);stroke:none" transform="matrix(2.81077 0 0 -2.81077 -27.318 310.844)"/><path d="M61.885 67.095 51.21 61.347l1.25-1.25 10.676 5.746z" style="fill:url(#i);stroke:none" transform="matrix(2.81077 0 0 -2.81077 -27.318 310.844)"/><path d="m61.615 62.367 1.61-4.822-4.823 1.607-1.34-1.34 8.843-2.948-2.948 8.842z" style="fill:url(#j);stroke:none" transform="matrix(2.81077 0 0 -2.81077 -27.318 310.844)"/><path d="m58.215 81.089-8.22-4.168 8.397-4.17.032 1.896-4.652 2.274 4.443 2.273z" style="fill:url(#k);stroke:none" transform="matrix(2.81077 0 0 -2.81077 -27.318 310.844)"/><path d="m61.605 70.73 3.487 12H63.32l-3.484-12z" style="fill:url(#l);stroke:none" transform="matrix(2.81077 0 0 -2.81077 -27.318 310.844)"/><path d="m67.215 72.752 7.966 4.169-8.521 4.168-.096-1.896 4.874-2.272-4.224-2.274z" style="fill:url(#m);stroke:none" transform="matrix(2.81077 0 0 -2.81077 -27.318 310.844)"/><path d="m56.894 84.299-1.34 1.342-4.823-1.608 1.608 4.823-1.34 1.341-2.949-8.844z" style="fill:url(#n);stroke:none" transform="matrix(2.81077 0 0 -2.81077 -27.318 310.844)"/><path d="m60.28 85.371-5.745 10.675-1.253-1.253L59.03 84.12z" style="fill:url(#o);stroke:none" transform="matrix(2.81077 0 0 -2.81077 -27.318 310.844)"/><path d="m62.831 96.134-1.608-4.823 1.342-1.339 2.947 8.843-8.843-2.949 1.34-1.341z" style="fill:url(#p);stroke:none" transform="matrix(2.81077 0 0 -2.81077 -27.318 310.844)"/><path d="m45.73 91.364-2.274-4.365-2.275 4.731h-1.893l4.168-8.521 4.17 8.245z" style="fill:url(#q);stroke:none" transform="matrix(2.81077 0 0 -2.81077 -27.318 310.844)"/><path d="m50.215 94.515-12 3.485v-1.77l12-3.485z" style="fill:url(#r);stroke:none" transform="matrix(2.81077 0 0 -2.81077 -27.318 310.844)"/><path d="m43.456 103.603 2.273-4.873h1.896l-4.17 8.664-4.168-8.175 1.896-.083z" style="fill:url(#s);stroke:none" transform="matrix(2.81077 0 0 -2.81077 -27.318 310.844)"/><path d="m36.077 89.803-1.341-1.34 1.608-4.823-4.824 1.608-1.34-1.34 8.844-2.949z" style="fill:url(#t);stroke:none" transform="matrix(2.81077 0 0 -2.81077 -27.318 310.844)"/><path d="m25.582 86.192 10.674 5.746-1.25 1.251-10.675-5.746z" style="fill:url(#u);stroke:none" transform="matrix(2.81077 0 0 -2.81077 -27.318 310.844)"/><path d="m25.85 90.918-1.608 4.823 4.824-1.608 1.34 1.341-8.845 2.948 2.95-8.844z" style="fill:url(#v);stroke:none" transform="matrix(2.81077 0 0 -2.81077 -27.318 310.844)"/><path d="m29.215 72.196 8.338 4.169-8.338 4.169v-1.896l4.547-2.273-4.548-2.274z" style="fill:url(#w);stroke:none" transform="matrix(2.81077 0 0 -2.81077 -27.318 310.844)"/><path d="m24.145 70.73 3.485 11h-1.769l-3.485-11z" style="fill:url(#x);stroke:none" transform="matrix(2.81077 0 0 -2.81077 -27.318 310.844)"/><path d="m12.565 76.365 8.339 4.169v-1.896l-4.548-2.273 4.548-2.274v-1.895z" style="fill:url(#y);stroke:none;stroke-width:1.00002" transform="matrix(2.81077 0 0 -2.81077 -27.318 310.844)"/></g></svg>