<svg width="48" height="48" viewBox="0 0 192 192" xmlns="http://www.w3.org/2000/svg"><path d="M77.565 87.612h-5.899L54.82 51.972 37.97 87.473c-1.92.395-3.793.171-5.952.16L8 32.329h14.437l12.872 30.096 14.033-30.14h11.202l13.704 30.154L87.221 32.3h14.422C93.59 50.802 85.6 69.156 77.565 87.612zm78.897-3.242-.246 2.495h-11.278v-54.53h11.252v19.416c2.208-.529 3.873-1.745 5.856-2.133 12.234-2.394 22.225 6.206 21.948 18.99-.081 3.73-.818 7.327-2.69 10.618-4.44 7.806-13.924 10.673-22.037 6.657-.897-.444-1.764-.95-2.805-1.513zm-.084-7.521c1.07.614 2.044 1.298 3.112 1.765 5.355 2.343 10.802-.188 12.281-5.738.716-2.686.676-5.403.225-8.176-1.239-7.625-10.348-9.621-15.617-4.855l-.001 17.004zm-20.565-6.472h-26.038c-.22 5.446 3.854 9.463 9.852 9.956 5.041.414 9.684-.609 13.807-3.648.493-.364 1.038-.658 1.762-1.111.417 2.412.118 4.656.226 7.018-2.617 2.077-5.629 3.311-8.846 4.119-5.21 1.31-10.456 1.379-15.623-.037-8.55-2.343-13.97-9.937-13.56-18.695.444-9.462 6.482-16.654 15.383-18.321 13.435-2.516 24.212 7.012 23.037 20.719zm-26.017-6.221h15.697c-.188-4.526-3.287-7.712-7.543-7.859-4.404-.152-7.491 2.775-8.154 7.859zm-40.69 82.502v14.314c-5.196 2.977-10.833 5.021-16.857 5.779-9.465 1.19-18.801.698-27.418-3.885C13.844 157.023 7.998 147.702 8 135.272c.002-12.577 6.015-22.129 17.152-27.682 13.834-6.897 28.035-6.305 42.045.04.245.111.482.251.699.409.141.103.241.264.471.526v13.981c-4.313-2.584-8.569-4.653-13.255-5.637-6.391-1.342-12.732-1.411-18.893 1.047-7.986 3.185-12.516 10.218-11.973 18.391.557 8.39 6.392 14.977 15.277 17.089 8.8 2.092 16.984.204 24.755-4.072 1.479-.812 2.944-1.649 4.828-2.706zm114.221 6.66v8.244c-2.868 2.299-6.33 3.7-10.018 4.635-5.98 1.516-12.003 1.589-17.935-.027-9.82-2.675-16.046-11.383-15.588-21.448.494-10.857 7.422-19.126 17.639-21.052 15.412-2.906 27.69 7.926 26.495 23.687h-29.892c-.34 6.283 4.367 10.951 11.26 11.524 5.786.481 11.118-.688 15.855-4.174.57-.419 1.195-.764 2.184-1.389zm-29.236-13.145h18.054c-.791-5.705-4.28-8.977-9.234-8.885-4.939.092-8.328 3.53-8.82 8.885zm-19.72-6.92h-15.262c.17 6.874-.531 13.526.579 20.131.402 2.393 2.481 3.778 5.156 3.973 3.241.237 6.2-.804 9.363-2.192v9.496c-6.725 2.794-13.657 3.97-20.688.66-4.472-2.105-7.026-5.726-7.582-10.739-.659-5.943-.224-11.899-.382-17.847-.028-1.059.225-2.152-.362-3.462h-5.331c-.48-1.075-.305-1.866-.239-2.652 5.604-6.327 11.175-12.597 16.714-18.894.717-.816 1.417-1.366 2.772-.781v13.085h15.097c.398 3.133.194 5.976.165 9.222zm-53.806-9.07h12.353v42.141H80.565v-42.141zm13.665-14.15c-.031 4.202-3.222 7.329-7.391 7.243a7.316 7.316 0 0 1-7.178-7.543c.104-3.86 3.547-7.082 7.486-7.006 4.025.077 7.112 3.262 7.083 7.306z" fill="#52829C"/></svg>